<svg width="49" height="26" viewBox="0 0 49 26" fill="none" xmlns="http://www.w3.org/2000/svg">
<path d="M39 24L31.9289 16.9705C30.5304 15.5802 29.578 13.8089 29.1921 11.8805C28.8063 9.95211 29.0043 7.95329 29.7612 6.13679C30.5181 4.3203 31.7998 2.76771 33.4443 1.67537C35.0888 0.583034 37.0222 0 39 0C40.9778 0 42.9112 0.583034 44.5557 1.67537C46.2002 2.76771 47.4819 4.3203 48.2388 6.13679C48.9957 7.95329 49.1937 9.95211 48.8079 11.8805C48.422 13.8089 47.4696 15.5802 46.0711 16.9705L39 24ZM44.5 15.4087C45.5877 14.3273 46.3283 12.9496 46.6284 11.4497C46.9284 9.9499 46.7744 8.3953 46.1857 6.98251C45.5969 5.56972 44.6 4.3622 43.321 3.51263C42.042 2.66306 40.5383 2.20961 39 2.20961C37.4617 2.20961 35.958 2.66306 34.679 3.51263C33.4 4.3622 32.4031 5.56972 31.8143 6.98251C31.2256 8.3953 31.0716 9.9499 31.3716 11.4497C31.6717 12.9496 32.4123 14.3273 33.5 15.4087L39 20.8763L44.5 15.4087ZM39 12.1502C38.4106 12.1502 37.8454 11.9174 37.4287 11.5031C37.0119 11.0888 36.7778 10.5269 36.7778 9.94104C36.7778 9.35514 37.0119 8.79324 37.4287 8.37894C37.8454 7.96465 38.4106 7.7319 39 7.7319C39.5894 7.7319 40.1546 7.96465 40.5713 8.37894C40.9881 8.79324 41.2222 9.35514 41.2222 9.94104C41.2222 10.5269 40.9881 11.0888 40.5713 11.5031C40.1546 11.9174 39.5894 12.1502 39 12.1502Z" fill="white"/>
</svg>
