<svg xmlns="http://www.w3.org/2000/svg" width="1440" height="82" fill="none" viewBox="0 0 1440 82"><path fill="#fff" d="M1405.73 34.896c1.31.003 2.56.504 3.48 1.392a4.7 4.7 0 0 1 1.45 3.347v9.479a4.7 4.7 0 0 1-1.45 3.347 5.03 5.03 0 0 1-3.48 1.392h-9.84a5.07 5.07 0 0 1-3.48-1.392 4.65 4.65 0 0 1-1.44-3.347v-9.479c0-1.255.52-2.459 1.44-3.347a5.07 5.07 0 0 1 3.48-1.392Zm0-1.896h-9.84c-3.79 0-6.89 2.986-6.89 6.636v9.479c0 3.65 3.1 6.635 6.89 6.635h9.84c3.79 0 6.89-2.986 6.89-6.636v-9.479c0-3.65-3.1-6.635-6.89-6.635"/><path fill="#fff" d="M1407.21 39.636c-.29 0-.58-.084-.82-.24a1.43 1.43 0 0 1-.54-.638c-.12-.26-.14-.546-.09-.822a1.476 1.476 0 0 1 1.16-1.117c.29-.055.59-.026.86.081.27.108.5.29.66.524s.25.509.25.79c0 .187-.04.372-.11.544-.08.173-.19.33-.32.462a1.5 1.5 0 0 1-1.05.416m-6.4.947c.78 0 1.54.223 2.19.64a3.82 3.82 0 0 1 1.45 1.702c.3.692.38 1.454.22 2.19a3.73 3.73 0 0 1-1.07 1.941c-.55.53-1.26.892-2.02 1.038s-1.55.071-2.27-.216a3.9 3.9 0 0 1-1.77-1.397 3.7 3.7 0 0 1-.67-2.107 3.76 3.76 0 0 1 1.16-2.68c.74-.71 1.74-1.11 2.78-1.11m0-1.895c-1.17 0-2.31.333-3.28.958a5.7 5.7 0 0 0-2.17 2.552 5.46 5.46 0 0 0-.34 3.286 5.6 5.6 0 0 0 1.62 2.912 5.93 5.93 0 0 0 3.02 1.557c1.15.22 2.33.107 3.41-.323s2-1.16 2.65-2.095 1-2.035 1-3.16c0-1.508-.62-2.955-1.73-4.022a6.03 6.03 0 0 0-4.18-1.666M1321 55l-7.07-7.03a9.95 9.95 0 0 1-2.74-5.09 9.9 9.9 0 0 1 .57-5.744 10 10 0 0 1 3.68-4.461 10.06 10.06 0 0 1 11.12 0 10 10 0 0 1 3.68 4.461 9.9 9.9 0 0 1 .57 5.744 9.95 9.95 0 0 1-2.74 5.09Zm5.5-8.591a7.7 7.7 0 0 0 2.13-3.959c.3-1.5.14-3.055-.44-4.468a7.76 7.76 0 0 0-2.87-3.47 7.81 7.81 0 0 0-8.64 0 7.76 7.76 0 0 0-2.87 3.47 7.76 7.76 0 0 0-.44 4.467c.3 1.5 1.04 2.878 2.13 3.96l5.5 5.467Zm-5.5-3.259a2.23 2.23 0 0 1-1.57-.647 2.19 2.19 0 0 1-.65-1.562c0-.586.23-1.148.65-1.562a2.23 2.23 0 0 1 3.14 0c.42.414.65.976.65 1.562s-.23 1.148-.65 1.562a2.23 2.23 0 0 1-1.57.647M1349.2 33h21.6c.32 0 .62.129.85.358.22.23.35.54.35.864v19.556c0 .324-.13.635-.35.864-.23.23-.53.358-.85.358h-21.6c-.32 0-.62-.129-.85-.358-.22-.23-.35-.54-.35-.864V34.222c0-.324.13-.635.35-.864.23-.23.53-.358.85-.358m20.4 5.18-9.51 8.678-9.69-8.705v14.403h19.2Zm-18.59-2.736 9.06 8.143 8.93-8.143Z"/></svg>