<svg xmlns="http://www.w3.org/2000/svg" width="24" height="23" fill="none" viewBox="0 0 24 23"><path fill="#fff" d="M16.734 1.896a5.03 5.03 0 0 1 3.476 1.392 4.67 4.67 0 0 1 1.446 3.347v9.479a4.67 4.67 0 0 1-1.446 3.348 5.03 5.03 0 0 1-3.476 1.392H6.891a5.03 5.03 0 0 1-3.476-1.392 4.67 4.67 0 0 1-1.446-3.348V6.635a4.67 4.67 0 0 1 1.446-3.347A5.04 5.04 0 0 1 6.89 1.896Zm0-1.896H6.891C3.1 0 0 2.986 0 6.636v9.479c0 3.65 3.1 6.635 6.89 6.635h9.843c3.791 0 6.892-2.986 6.892-6.636V6.635c0-3.65-3.1-6.635-6.89-6.635"/><path fill="#fff" d="M18.21 6.636c-.291 0-.577-.084-.82-.24a1.44 1.44 0 0 1-.544-.638 1.37 1.37 0 0 1-.084-.822c.058-.275.198-.529.405-.728.206-.198.47-.334.756-.389a1.53 1.53 0 0 1 .853.08c.27.109.5.291.663.525a1.385 1.385 0 0 1-.183 1.796 1.5 1.5 0 0 1-.48.308c-.179.072-.371.108-.565.108m-6.398.947c.78 0 1.54.223 2.188.64a3.83 3.83 0 0 1 1.45 1.702c.299.692.376 1.454.225 2.19a3.75 3.75 0 0 1-1.078 1.941c-.55.53-1.252.892-2.016 1.038a4.1 4.1 0 0 1-2.275-.216 3.9 3.9 0 0 1-1.767-1.397 3.7 3.7 0 0 1-.664-2.107 3.73 3.73 0 0 1 1.155-2.68 4.02 4.02 0 0 1 2.783-1.112m0-1.895a6.07 6.07 0 0 0-3.281.959 5.74 5.74 0 0 0-2.175 2.552 5.5 5.5 0 0 0-.336 3.286 5.63 5.63 0 0 0 1.616 2.912 6 6 0 0 0 3.024 1.557 6.1 6.1 0 0 0 3.412-.324 5.86 5.86 0 0 0 2.65-2.095 5.54 5.54 0 0 0 .995-3.16 5.58 5.58 0 0 0-1.73-4.022 6.02 6.02 0 0 0-4.176-1.666"/></svg>