<svg xmlns="http://www.w3.org/2000/svg" width="49" height="26" fill="none" viewBox="0 0 49 26"><path fill="#fff" d="m39 24-7.071-7.03a9.92 9.92 0 0 1-2.737-5.09 9.9 9.9 0 0 1 .57-5.744 9.95 9.95 0 0 1 3.683-4.461 10.04 10.04 0 0 1 11.111 0 9.95 9.95 0 0 1 3.683 4.461 9.9 9.9 0 0 1 .57 5.744 9.92 9.92 0 0 1-2.737 5.09Zm5.5-8.591a7.7 7.7 0 0 0 2.128-3.959 7.7 7.7 0 0 0-.443-4.467 7.74 7.74 0 0 0-2.865-3.47 7.81 7.81 0 0 0-8.642 0 7.74 7.74 0 0 0-2.865 3.47 7.7 7.7 0 0 0-.443 4.467c.302 1.5 1.042 2.877 2.13 3.959l5.5 5.467ZM39 12.15c-.59 0-1.155-.233-1.571-.647a2.2 2.2 0 0 1 0-3.124 2.23 2.23 0 0 1 3.143 0 2.2 2.2 0 0 1 0 3.124A2.23 2.23 0 0 1 39 12.15"/></svg>