<svg xmlns="http://www.w3.org/2000/svg" width="83" height="83" fill="none" viewBox="0 0 83 83"><path fill="#292e36" d="M0 41.5C0 18.58 18.58 0 41.5 0S83 18.58 83 41.5 64.42 83 41.5 83 0 64.42 0 41.5"/><path stroke="#fff" stroke-linecap="round" stroke-linejoin="round" stroke-width="3.5" d="M25.117 26.807a22.06 22.06 0 0 0-5.616 14.452c-.14 12.196 9.823 22.2 22 22.24 12.177.02 21.999-9.842 21.999-22 0-11.975-9.58-21.737-21.496-21.999-.06 0-.141 0-.201.04a.44.44 0 0 0-.161.1c-.04.042-.08.102-.121.162-.02.06-.04.121-.04.202v9.58"/><path fill="#fff" d="m38.924 44.076-9.057-12.942a.87.87 0 0 1-.161-.624.92.92 0 0 1 .262-.584.947.947 0 0 1 1.188-.1l12.941 9.057a3.7 3.7 0 0 1 1.49 2.395 3.73 3.73 0 0 1-.624 2.757 3.707 3.707 0 0 1-5.133.946 3.5 3.5 0 0 1-.906-.906"/></svg>