<svg width="1440" height="82" viewBox="0 0 1440 82" fill="none" xmlns="http://www.w3.org/2000/svg">
<path d="M1405.73 34.8957C1407.04 34.8994 1408.29 35.4 1409.21 36.2881C1410.13 37.1762 1410.65 38.3796 1410.66 39.6356V49.1144C1410.65 50.3704 1410.13 51.5738 1409.21 52.4619C1408.29 53.35 1407.04 53.8506 1405.73 53.8543H1395.89C1394.59 53.8506 1393.34 53.35 1392.41 52.4619C1391.49 51.5738 1390.97 50.3704 1390.97 49.1144V39.6356C1390.97 38.3796 1391.49 37.1762 1392.41 36.2881C1393.34 35.4 1394.59 34.8994 1395.89 34.8957H1405.73ZM1405.73 33H1395.89C1392.1 33 1389 35.9859 1389 39.6356V49.1144C1389 52.7641 1392.1 55.75 1395.89 55.75H1405.73C1409.52 55.75 1412.62 52.7641 1412.62 49.1144V39.6356C1412.62 35.9859 1409.52 33 1405.73 33Z" fill="white"/>
<path d="M1407.21 39.6357C1406.92 39.6357 1406.63 39.5524 1406.39 39.3961C1406.15 39.2399 1405.96 39.0178 1405.85 38.758C1405.73 38.4982 1405.71 38.2123 1405.76 37.9365C1405.82 37.6607 1405.96 37.4073 1406.17 37.2085C1406.37 37.0096 1406.64 36.8742 1406.92 36.8193C1407.21 36.7645 1407.51 36.7926 1407.78 36.9002C1408.05 37.0078 1408.28 37.1901 1408.44 37.4239C1408.6 37.6577 1408.69 37.9327 1408.69 38.2139C1408.69 38.4007 1408.65 38.5858 1408.58 38.7585C1408.5 38.9312 1408.39 39.0881 1408.26 39.2202C1408.12 39.3523 1407.96 39.457 1407.78 39.5283C1407.6 39.5996 1407.4 39.6361 1407.21 39.6357ZM1400.81 40.5833C1401.59 40.5833 1402.35 40.8057 1403 41.2224C1403.65 41.639 1404.15 42.2312 1404.45 42.9241C1404.75 43.617 1404.83 44.3794 1404.67 45.1149C1404.52 45.8505 1404.15 46.5261 1403.6 47.0564C1403.05 47.5867 1402.34 47.9478 1401.58 48.0941C1400.82 48.2404 1400.03 48.1654 1399.31 47.8784C1398.59 47.5914 1397.97 47.1054 1397.54 46.4818C1397.11 45.8582 1396.87 45.1251 1396.87 44.3752C1396.88 43.3698 1397.29 42.406 1398.03 41.6951C1398.77 40.9842 1399.77 40.5844 1400.81 40.5833ZM1400.81 38.6877C1399.64 38.6877 1398.5 39.0212 1397.53 39.6462C1396.56 40.2711 1395.8 41.1594 1395.36 42.1986C1394.91 43.2379 1394.79 44.3815 1395.02 45.4847C1395.25 46.588 1395.81 47.6014 1396.64 48.3968C1397.46 49.1922 1398.51 49.7339 1399.66 49.9534C1400.81 50.1728 1401.99 50.0602 1403.07 49.6297C1404.15 49.1992 1405.07 48.4703 1405.72 47.535C1406.37 46.5997 1406.72 45.5 1406.72 44.3752C1406.72 42.8667 1406.1 41.4201 1404.99 40.3535C1403.88 39.2869 1402.38 38.6877 1400.81 38.6877Z" fill="white"/>
<path d="M1321 55L1313.93 47.9705C1312.53 46.5802 1311.58 44.8089 1311.19 42.8805C1310.81 40.9521 1311 38.9533 1311.76 37.1368C1312.52 35.3203 1313.8 33.7677 1315.44 32.6754C1317.09 31.583 1319.02 31 1321 31C1322.98 31 1324.91 31.583 1326.56 32.6754C1328.2 33.7677 1329.48 35.3203 1330.24 37.1368C1331 38.9533 1331.19 40.9521 1330.81 42.8805C1330.42 44.8089 1329.47 46.5802 1328.07 47.9705L1321 55ZM1326.5 46.4087C1327.59 45.3273 1328.33 43.9496 1328.63 42.4497C1328.93 40.9499 1328.77 39.3953 1328.19 37.9825C1327.6 36.5697 1326.6 35.3622 1325.32 34.5126C1324.04 33.6631 1322.54 33.2096 1321 33.2096C1319.46 33.2096 1317.96 33.6631 1316.68 34.5126C1315.4 35.3622 1314.4 36.5697 1313.81 37.9825C1313.23 39.3953 1313.07 40.9499 1313.37 42.4497C1313.67 43.9496 1314.41 45.3273 1315.5 46.4087L1321 51.8763L1326.5 46.4087ZM1321 43.1502C1320.41 43.1502 1319.85 42.9174 1319.43 42.5031C1319.01 42.0888 1318.78 41.5269 1318.78 40.941C1318.78 40.3551 1319.01 39.7932 1319.43 39.3789C1319.85 38.9646 1320.41 38.7319 1321 38.7319C1321.59 38.7319 1322.15 38.9646 1322.57 39.3789C1322.99 39.7932 1323.22 40.3551 1323.22 40.941C1323.22 41.5269 1322.99 42.0888 1322.57 42.5031C1322.15 42.9174 1321.59 43.1502 1321 43.1502Z" fill="white"/>
<path d="M1349.2 33H1370.8C1371.12 33 1371.42 33.1288 1371.65 33.358C1371.87 33.5872 1372 33.8981 1372 34.2222V53.7778C1372 54.1019 1371.87 54.4128 1371.65 54.642C1371.42 54.8712 1371.12 55 1370.8 55H1349.2C1348.88 55 1348.58 54.8712 1348.35 54.642C1348.13 54.4128 1348 54.1019 1348 53.7778V34.2222C1348 33.8981 1348.13 33.5872 1348.35 33.358C1348.58 33.1288 1348.88 33 1349.2 33ZM1369.6 38.1798L1360.09 46.8576L1350.4 38.1529V52.5556H1369.6V38.1798ZM1351.01 35.4444L1360.07 43.5869L1369 35.4444H1351.01Z" fill="white"/>
</svg>
